<?xml version="1.0" encoding="utf-8"?>
<!-- Generator: Adobe Illustrator 19.1.0, SVG Export Plug-In . SVG Version: 6.00 Build 0)  -->
<svg version="1.1" xmlns="http://www.w3.org/2000/svg" xmlns:xlink="http://www.w3.org/1999/xlink" x="0px" y="0px"
	 viewBox="0 0 378 174" style="enable-background:new 0 0 378 174;" xml:space="preserve">
<style type="text/css">
	.st0{fill:#29ABE2;}
	.st1{display:none;}
	.st2{display:inline;fill:#00A99D;}
	.st3{display:inline;fill:url(#SVGID_1_);}
	.st4{display:inline;fill:#FFFF00;}
</style>
<symbol  id="RSS" viewBox="-9.8 -9.8 19.6 19.6">
	<path id="circle_3_" class="st0" d="M-4.6-7.2c0-1.5-1.2-2.6-2.6-2.6c-1.5,0-2.6,1.2-2.6,2.6c0,1.4,1.2,2.6,2.6,2.6
		C-5.7-4.6-4.6-5.7-4.6-7.2z"/>
	<path class="st0" d="M3.1-9.7h-3.5c0,2.5-1,4.8-2.8,6.5c-1.7,1.7-4,2.7-6.5,2.8v3.5C-2.7,3,3-2.7,3.1-9.7L3.1-9.7z"/>
	<path class="st0" d="M9.8-9.7H6.4c-0.1,8.8-7.2,16-16,16v3.5C1,9.7,9.7,1,9.8-9.7L9.8-9.7z"/>
</symbol>
<g id="Layer_1" class="st1">
	<rect x="48.2" y="42.8" class="st2" width="71.2" height="51.2"/>
	<radialGradient id="SVGID_1_" cx="287.625" cy="77.625" r="37.875" gradientUnits="userSpaceOnUse">
		<stop  offset="0" style="stop-color:#FFFFFF"/>
		<stop  offset="8.510864e-02" style="stop-color:#FFEDD8"/>
		<stop  offset="0.2082" style="stop-color:#FFD5A7"/>
		<stop  offset="0.3345" style="stop-color:#FFC17D"/>
		<stop  offset="0.462" style="stop-color:#FFB05B"/>
		<stop  offset="0.591" style="stop-color:#FFA340"/>
		<stop  offset="0.7222" style="stop-color:#FF9A2D"/>
		<stop  offset="0.8568" style="stop-color:#FF9522"/>
		<stop  offset="1" style="stop-color:#FF931E"/>
	</radialGradient>
	<circle class="st3" cx="287.6" cy="77.6" r="37.9"/>
	<polygon class="st4" points="135.9,119 178.2,45.8 220.5,119 	"/>
</g>
<g id="Layer_2">
	
		<use xlink:href="#RSS"  width="19.6" height="19.6" x="-9.8" y="-9.8" transform="matrix(6.0871 0 0 -6.0871 182.7109 89.2889)" style="overflow:visible;"/>
</g>
</svg>
